<?xml version="1.0" encoding="UTF-8"?>
<svg xmlns="http://www.w3.org/2000/svg" version="1.1" viewBox="0 0 133 54">
  <defs>
    <style>
      .cls-1, .cls-2 {
        fill: #fff;
      }

      .cls-2 {
        fill-rule: evenodd;
      }
    </style>
  </defs>
  <!-- Generator: Adobe Illustrator 28.7.5, SVG Export Plug-In . SVG Version: 1.2.0 Build 176)  -->
  <g>
    <g id="Ebene_3">
      <path class="cls-2" d="M0,27.05c0,14.88,14.66,26.94,26.94,26.94,14.88,0,26.94-12.06,26.94-26.94S41.83.1,26.94.1,0,12.16,0,27.05ZM20.16,18.35c-1.2,0-2.16.96-2.16,2.16v13.06c0,1.2.96,2.16,2.16,2.16h13.56c1.2,0,2.16-.96,2.16-2.16v-13.06c0-1.2-.96-2.16-2.16-2.16h-13.56Z"/>
      <g>
        <path class="cls-1" d="M64.31,36.55c.5.31,1.23.57,2,.57,1.14,0,1.81-.6,1.81-1.48,0-.81-.46-1.27-1.63-1.72-1.41-.5-2.29-1.23-2.29-2.45,0-1.35,1.12-2.35,2.8-2.35.89,0,1.53.21,1.91.42l-.31.91c-.28-.15-.86-.41-1.64-.41-1.18,0-1.63.71-1.63,1.3,0,.81.53,1.21,1.72,1.67,1.46.57,2.21,1.27,2.21,2.54,0,1.34-.99,2.49-3.03,2.49-.83,0-1.75-.24-2.21-.55l.28-.94Z"/>
        <path class="cls-1" d="M70.76,33.38c0-.64-.01-1.17-.05-1.68h.99l.05,1h.04c.35-.59.92-1.14,1.95-1.14.85,0,1.49.51,1.76,1.25h.03c.19-.35.44-.62.69-.81.37-.28.78-.44,1.38-.44.82,0,2.04.54,2.04,2.7v3.66h-1.1v-3.52c0-1.19-.44-1.91-1.35-1.91-.64,0-1.14.48-1.34,1.03-.05.15-.09.36-.09.57v3.84h-1.1v-3.73c0-.99-.44-1.71-1.3-1.71-.71,0-1.22.57-1.4,1.13-.06.17-.09.36-.09.55v3.75h-1.11v-4.54Z"/>
        <path class="cls-1" d="M84.91,37.91l-.09-.78h-.04c-.35.49-1.02.93-1.9.93-1.26,0-1.9-.89-1.9-1.79,0-1.5,1.34-2.33,3.74-2.31v-.13c0-.51-.14-1.44-1.41-1.44-.58,0-1.18.18-1.62.46l-.26-.75c.51-.33,1.26-.55,2.04-.55,1.9,0,2.36,1.3,2.36,2.54v2.33c0,.54.03,1.07.1,1.49h-1.03ZM84.74,34.74c-1.23-.03-2.63.19-2.63,1.4,0,.73.49,1.08,1.07,1.08.81,0,1.32-.51,1.5-1.04.04-.12.06-.24.06-.36v-1.08Z"/>
        <path class="cls-1" d="M87.66,33.63c0-.73-.01-1.36-.05-1.94h.99l.04,1.22h.05c.28-.83.96-1.36,1.72-1.36.13,0,.22.01.32.04v1.07c-.12-.03-.23-.04-.39-.04-.8,0-1.36.6-1.52,1.45-.03.15-.05.33-.05.53v3.31h-1.12v-4.28Z"/>
        <path class="cls-1" d="M93.53,29.91v1.79h1.62v.86h-1.62v3.35c0,.77.22,1.21.85,1.21.3,0,.51-.04.66-.08l.05.85c-.22.09-.57.15-1,.15-.53,0-.95-.17-1.22-.48-.32-.33-.44-.89-.44-1.62v-3.39h-.96v-.86h.96v-1.49l1.1-.29Z"/>
        <path class="cls-1" d="M100.13,37.91l-2.2-8.66h1.18l1.03,4.38c.26,1.08.49,2.16.64,2.99h.03c.14-.86.41-1.89.71-3.01l1.16-4.37h1.17l1.05,4.39c.24,1.03.48,2.06.6,2.97h.03c.18-.95.42-1.91.69-2.99l1.14-4.37h1.14l-2.45,8.66h-1.17l-1.09-4.51c-.27-1.1-.45-1.95-.57-2.83h-.03c-.15.86-.35,1.71-.67,2.83l-1.23,4.51h-1.17Z"/>
        <path class="cls-1" d="M112.56,37.91l-.09-.78h-.04c-.35.49-1.02.93-1.9.93-1.26,0-1.9-.89-1.9-1.79,0-1.5,1.34-2.33,3.74-2.31v-.13c0-.51-.14-1.44-1.41-1.44-.58,0-1.18.18-1.62.46l-.26-.75c.51-.33,1.26-.55,2.04-.55,1.9,0,2.36,1.3,2.36,2.54v2.33c0,.54.03,1.07.1,1.49h-1.03ZM112.39,34.74c-1.23-.03-2.63.19-2.63,1.4,0,.73.49,1.08,1.07,1.08.81,0,1.32-.51,1.5-1.04.04-.12.06-.24.06-.36v-1.08Z"/>
        <path class="cls-1" d="M115.31,28.79h1.13v9.12h-1.13v-9.12Z"/>
        <path class="cls-1" d="M118.34,28.79h1.13v9.12h-1.13v-9.12Z"/>
        <path class="cls-1" d="M122,35.01c.03,1.53,1,2.16,2.13,2.16.81,0,1.3-.14,1.72-.32l.19.81c-.4.18-1.08.39-2.07.39-1.91,0-3.06-1.26-3.06-3.14s1.1-3.35,2.92-3.35c2.03,0,2.57,1.79,2.57,2.93,0,.23-.03.41-.04.53h-4.37ZM125.31,34.2c.01-.72-.29-1.84-1.57-1.84-1.14,0-1.64,1.05-1.73,1.84h3.3Z"/>
        <path class="cls-1" d="M129.17,29.91v1.79h1.62v.86h-1.62v3.35c0,.77.22,1.21.85,1.21.3,0,.51-.04.66-.08l.05.85c-.22.09-.57.15-1,.15-.53,0-.95-.17-1.22-.48-.32-.33-.44-.89-.44-1.62v-3.39h-.96v-.86h.96v-1.49l1.1-.29Z"/>
      </g>
      <path class="cls-1" d="M77.05,15.19c-2.5,0-4.45,1.9-4.45,4.44s1.9,4.42,4.45,4.42,4.49-1.91,4.49-4.44-1.9-4.42-4.49-4.42ZM77.06,22.23c-1.42,0-2.47-1.11-2.47-2.59s1.03-2.61,2.45-2.61,2.48,1.12,2.48,2.61-1.04,2.59-2.47,2.59ZM82.08,17.13h1.24v6.77h1.99v-8.53h-3.23v1.77ZM67.59,17.03c1.04,0,1.87.64,2.19,1.6h2.1c-.38-2.05-2.07-3.43-4.27-3.43-2.5,0-4.45,1.9-4.45,4.44s1.9,4.42,4.45,4.42c2.15,0,3.87-1.39,4.26-3.45h-2.09c-.3.96-1.13,1.62-2.17,1.62-1.44,0-2.45-1.11-2.45-2.59,0-1.5.99-2.61,2.43-2.61ZM119.84,18.81l-1.46-.21c-.7-.1-1.19-.33-1.19-.87,0-.59.65-.89,1.52-.89.96,0,1.57.41,1.71,1.09h1.92c-.22-1.72-1.54-2.72-3.58-2.72s-3.49,1.07-3.49,2.59.91,2.29,2.75,2.56l1.46.21c.71.1,1.11.38,1.11.91,0,.68-.7.96-1.66.96-1.18,0-1.84-.48-1.94-1.2h-1.95c.18,1.67,1.49,2.84,3.87,2.84,2.17,0,3.61-.99,3.61-2.69,0-1.52-1.04-2.31-2.68-2.56ZM84.32,11.84c-.73,0-1.28.53-1.28,1.25s.55,1.25,1.28,1.25,1.28-.53,1.28-1.25-.55-1.25-1.28-1.25ZM113.48,18.28c0-1.85-1.13-3.09-3.51-3.09-2.25,0-3.51,1.14-3.76,2.89h1.97c.1-.68.63-1.24,1.76-1.24,1.01,0,1.51.45,1.51.99,0,.71-.91.89-2.04,1.01-1.52.16-3.41.69-3.41,2.67,0,1.54,1.14,2.53,2.96,2.53,1.42,0,2.32-.59,2.77-1.54.07.84.7,1.39,1.57,1.39h1.16v-1.77h-.98v-3.85h0ZM111.53,20.43c0,1.14-.99,1.98-2.2,1.98-.75,0-1.37-.31-1.37-.97,0-.84,1.01-1.07,1.94-1.17.89-.08,1.39-.28,1.64-.66v.82ZM100.98,15.19c-1.11,0-2.04.46-2.7,1.24v-4.67h-1.99v12.13h1.95v-1.12c.66.81,1.61,1.29,2.73,1.29,2.38,0,4.19-1.88,4.19-4.42s-1.84-4.44-4.19-4.44ZM100.68,22.23c-1.42,0-2.47-1.11-2.47-2.59s1.06-2.61,2.48-2.61,2.45,1.11,2.45,2.61-1.04,2.59-2.47,2.59ZM91.54,15.19c-1.29,0-2.14.53-2.63,1.27v-1.11h-1.97v8.53h1.99v-4.64c0-1.3.83-2.23,2.05-2.23,1.14,0,1.85.81,1.85,1.98v4.89h1.99v-5.03c0-2.15-1.11-3.66-3.28-3.66ZM131.99,19.35c0-2.44-1.79-4.16-4.19-4.16-2.55,0-4.42,1.91-4.42,4.44,0,2.66,2,4.42,4.45,4.42,2.07,0,3.69-1.22,4.11-2.95h-2.07c-.3.76-1.03,1.19-2,1.19-1.28,0-2.24-.79-2.45-2.18h6.57v-.76h0ZM125.54,18.69c.31-1.19,1.21-1.77,2.24-1.77,1.13,0,1.99.64,2.19,1.77h-4.42Z"/>
    </g>
  </g>
</svg>