<?xml version="1.0" encoding="UTF-8"?>
<svg xmlns="http://www.w3.org/2000/svg" version="1.1" viewBox="0 0 133 54">
  <defs>
    <style>
      .cls-1, .cls-2 {
        fill: #fff;
      }

      .cls-2 {
        fill-rule: evenodd;
      }
    </style>
  </defs>
  <!-- Generator: Adobe Illustrator 28.7.5, SVG Export Plug-In . SVG Version: 1.2.0 Build 176)  -->
  <g>
    <g id="Ebene_1">
      <path class="cls-1" d="M.45,21.92"/>
      <path class="cls-1" d="M46.3,8.43C36.16-2.34,19.21-2.86,8.43,7.28,4.16,11.3,1.51,16.39.49,21.74c8.23-1.06,16.83,1.71,22.95,8.21,6.12,6.5,8.36,15.26,6.8,23.41,5.4-.7,10.64-3.03,14.91-7.05,10.77-10.14,11.29-27.09,1.15-37.87ZM37.25,20.55c-1.4.38-2.49,1.48-2.87,2.88l-.95,3.51-.96-3.5c-.38-1.4-1.48-2.49-2.88-2.87l-3.51-.95,3.5-.96c1.4-.38,2.49-1.48,2.87-2.88l.95-3.51.96,3.5c.38,1.4,1.48,2.49,2.88,2.87l3.51.95-3.5.96Z"/>
      <path class="cls-1" d="M3.92,21.52v1c7.19,0,13.86,2.88,18.79,8.12,5.48,5.83,7.95,13.93,6.68,21.82-.86.09-1.73.13-2.59.13-7.19,0-13.86-2.88-18.79-8.12C2.53,38.64.06,30.53,1.33,22.65c.86-.09,1.73-.13,2.59-.13v-1M3.92,21.52c-1.15,0-2.3.07-3.44.22-1.56,8.15.68,16.91,6.8,23.41,5.27,5.6,12.38,8.43,19.51,8.43,1.15,0,2.3-.07,3.44-.22,1.56-8.15-.68-16.91-6.8-23.41-5.27-5.6-12.38-8.43-19.51-8.43h0Z"/>
      <g>
        <path class="cls-1" d="M98.61,22.17c0,.43.35.79.79.79h3.62c.18,0,.33.16.33.36v.42c0,.2-.15.36-.33.36h-5.24c-.18,0-.33-.16-.33-.36v-8.14c0-.2.15-.36.33-.36h5.07c.18,0,.33.16.33.36v.42c0,.2-.15.36-.33.36h-3.45c-.43,0-.79.35-.79.79v.74c0,.43.35.79.79.79h2.96c.09,0,.17.08.17.18v.41c0,.1-.07.18-.17.18h-2.96c-.43,0-.79.35-.79.79v1.94Z"/>
        <path class="cls-2" d="M76.49,23.77h0s0,0,0,0c.55.22,1.14.32,1.76.32s1.21-.11,1.75-.32h0c.54-.22,1-.53,1.4-.93.4-.4.71-.87.93-1.41.23-.54.34-1.13.34-1.77s-.11-1.22-.34-1.77c-.22-.54-.53-1.01-.93-1.41-.4-.4-.86-.71-1.4-.92-.54-.22-1.12-.34-1.75-.34s-1.23.11-1.77.34c-.54.22-1.01.53-1.41.93-.39.4-.7.87-.93,1.41h0c-.22.53-.33,1.12-.33,1.75s.11,1.22.33,1.76h0s0,0,0,0c.22.53.53,1,.93,1.4h0s0,0,0,0c.4.4.87.71,1.41.93ZM81.24,18.36h0c.16.39.24.83.24,1.31s-.08.92-.24,1.32c-.16.39-.39.74-.68,1.04-.28.29-.62.52-1.02.69-.39.16-.81.24-1.28.24s-.9-.08-1.29-.24c-.4-.17-.74-.4-1.03-.69-.29-.3-.51-.65-.68-1.06-.16-.4-.24-.83-.24-1.31s.08-.91.24-1.3c.17-.4.4-.75.68-1.04.29-.3.63-.53,1.03-.69h0s0,0,0,0c.4-.17.82-.25,1.29-.25s.89.08,1.28.25h0s0,0,0,0c.4.16.73.39,1.02.69h0s0,0,0,0c.29.29.52.64.68,1.04Z"/>
        <path class="cls-1" d="M66.54,16.55v7.19c0,.2.16.36.37.36h.55c.2,0,.37-.16.37-.36v-7.19c0-.1.08-.18.18-.18h2.5c.2,0,.37-.16.37-.36v-.42c0-.2-.16-.36-.37-.36h-6.65c-.2,0-.37.16-.37.36v.42c0,.2.16.36.37.36h2.5c.1,0,.18.08.18.18Z"/>
        <path class="cls-1" d="M93.37,15.84c.22-.23.06-.6-.26-.6h-.54c-.09,0-.18.04-.25.1l-4.38,3.5c-.12.09-.29.01-.29-.14v-3.1c0-.2-.16-.36-.36-.36h-.54c-.2,0-.36.16-.36.36v8.13c0,.2.16.36.36.36h.54c.2,0,.36-.16.36-.36v-3.02c0-.05.02-.1.06-.14l1.18-1.04c.07-.06.19-.05.25.02l3.87,4.37c.1.11.24.17.39.17.31,0,.47-.36.28-.59h0s-3.47-3.91-3.47-3.91c-.29-.33-.26-.83.08-1.12l3.09-2.63Z"/>
        <path class="cls-1" d="M107.78,15.59v8.14c0,.2.15.36.33.36h.51c.18,0,.33-.16.33-.36v-5.65c0-.17.2-.24.3-.11l4.46,5.98c.06.09.16.13.26.13.24,0,.44-.2.44-.44v-7.92c0-.27-.22-.49-.5-.49-.18,0-.33.16-.33.36v5.65c0,.17-.2.24-.3.11l-4.48-5.98c-.06-.08-.16-.13-.26-.13h-.44c-.18,0-.33.16-.33.36Z"/>
        <path class="cls-1" d="M127.7,37.81h0s0,0,0,0c.55.21,1.12.31,1.71.31s.82-.07,1.37-.33h0c.45-.23.79-.52,1.02-.9h0c.22-.38.33-.79.33-1.23,0-.46-.09-.85-.29-1.16-.18-.3-.43-.53-.74-.7-.29-.17-.61-.31-.96-.42-.33-.1-.67-.2-1.01-.29-.33-.09-.64-.18-.92-.29-.26-.1-.47-.24-.62-.42-.14-.16-.21-.38-.21-.67,0-.25.06-.47.18-.67.13-.2.32-.36.6-.49.28-.12.47-.19.92-.19.33,0,.67.05,1.03.16h0c.3.09.59.22.86.39.17.11.4.04.48-.16l.15-.38c.06-.15.01-.34-.12-.43-.3-.2-.65-.36-1.04-.48-.44-.14-.89-.21-1.34-.21-.67,0-1.07.11-1.52.34-.44.22-.78.52-1.01.9h0c-.22.37-.32.78-.32,1.23,0,.47.09.87.28,1.18h0s0,0,0,0c.19.29.44.53.74.71h0c.3.17.62.31.97.42h0s0,0,0,0c.34.1.68.19,1.02.28.33.09.64.19.91.3h0s0,0,0,0c.26.1.46.24.61.42h0s0,0,0,0c.14.16.22.38.22.67,0,.23-.06.44-.19.64h0s0,0,0,0c-.12.19-.31.35-.6.47-.41.18-.8.18-.8.18-.49,0-.96-.09-1.4-.27-.36-.16-.65-.34-.89-.54-.16-.14-.41-.1-.51.11l-.17.36c-.06.13-.04.3.07.41.3.3.7.54,1.19.74Z"/>
        <path class="cls-1" d="M117.78,37.8h0c.53.22,1.11.32,1.73.32s1.17-.11,1.7-.32c.48-.19.89-.47,1.24-.84.13-.14.12-.36,0-.49l-.3-.32c-.13-.14-.34-.13-.48,0-.28.27-.58.47-.91.6-.38.15-.78.23-1.22.23-.46,0-.88-.08-1.27-.24-.39-.17-.73-.4-1.02-.69-.29-.3-.52-.65-.68-1.04-.16-.4-.24-.84-.24-1.32s.08-.91.24-1.3c.17-.4.39-.75.68-1.04h0c.29-.3.62-.53,1.01-.69h0s0,0,0,0c.39-.17.81-.25,1.27-.25s.84.08,1.22.23h0s0,0,0,0c.32.12.63.32.9.59.13.13.34.13.48,0l.3-.32c.12-.13.14-.35,0-.49-.35-.36-.76-.64-1.24-.83-.53-.22-1.09-.32-1.69-.32s-1.2.11-1.73.33c-.53.22-.99.52-1.39.92h0c-.39.4-.69.87-.92,1.41h0c-.22.54-.32,1.13-.32,1.77s.11,1.22.32,1.76h0c.22.54.53,1.01.92,1.41.39.4.85.71,1.38.93Z"/>
        <path class="cls-1" d="M109.26,30.33v7.46c0,.18.19.33.42.33h.64c.23,0,.42-.15.42-.33v-7.46c0-.18-.19-.33-.42-.33h-.64c-.23,0-.42.15-.42.33Z"/>
        <path class="cls-1" d="M90.59,31.2v6.59c0,.18.15.33.33.33h.5c.18,0,.33-.15.33-.33v-6.59c0-.09.07-.16.16-.16h2.25c.18,0,.33-.15.33-.33v-.38c0-.18-.15-.33-.33-.33h-5.99c-.18,0-.33.15-.33.33v.38c0,.18.15.33.33.33h2.25c.09,0,.16.07.16.16Z"/>
        <path class="cls-1" d="M79.42,36.29c0,.43.35.79.79.79h3.62c.18,0,.33.15.33.33v.38c0,.18-.15.33-.33.33h-5.24c-.18,0-.33-.15-.33-.33v-7.46c0-.18.15-.33.33-.33h5.07c.18,0,.33.15.33.33v.38c0,.18-.15.33-.33.33h-3.45c-.43,0-.79.35-.79.79v.54c0,.43.35.79.79.79h2.96c.09,0,.17.07.17.16v.37c0,.09-.07.16-.17.16h-2.96c-.43,0-.79.35-.79.79v1.65Z"/>
        <path class="cls-1" d="M73.02,30c-.11,0-.21.05-.28.14l-3.2,4.19c-.07.09-.21.09-.28,0l-3.23-4.19c-.06-.08-.17-.13-.28-.13h-.45c-.19,0-.35.15-.35.33v7.46c0,.18.15.33.35.33h.49c.19,0,.35-.15.35-.33v-5.08c0-.16.21-.22.31-.1l2.55,3.24c.07.08.17.13.28.13h.24c.11,0,.21-.05.28-.13l2.55-3.24c.1-.13.31-.06.31.1v5.08c0,.18.15.33.35.33h.49c.19,0,.35-.15.35-.33v-7.46c0-.18-.15-.33-.35-.33h-.45Z"/>
        <path class="cls-2" d="M103.75,35.32h0c-.15.06-.21.22-.11.34l1.67,2.04c.09.11,0,.26-.15.26h-.52c-.12,0-.24-.05-.31-.14l-1.62-2.05c-.08-.1-.22-.15-.36-.14-.2.02-.4.02-.62.02h-1.87c-.21,0-.38.15-.38.33l.03,1.8c0,.18-.17.33-.38.33h-.57c-.21,0-.38-.15-.38-.33v-7.46c0-.18.17-.33.38-.33h3.16c.78,0,1.46.11,2.03.34.58.22,1.02.54,1.33.97.32.42.48.94.48,1.52s-.16,1.08-.48,1.51c-.31.42-.76.75-1.33.97ZM103.61,34.15c.42-.31.64-.73.64-1.31s-.22-1.02-.64-1.32h0c-.41-.31-1.04-.47-1.91-.47h-1.86c-.21,0-.38.15-.38.33v2.92c0,.18.17.33.38.33h1.86c.87,0,1.5-.17,1.91-.47h0Z"/>
      </g>
    </g>
  </g>
</svg>