<?xml version="1.0" encoding="UTF-8"?>
<svg xmlns="http://www.w3.org/2000/svg" version="1.1" viewBox="0 0 53.58 53.58">
  <defs>
    <style>
      .cls-1 {
        fill: #fff;
      }

      .cls-2 {
        fill: #222b38;
      }

      .cls-3 {
        fill: #ffd60a;
      }
    </style>
  </defs>
  <!-- Generator: Adobe Illustrator 28.7.5, SVG Export Plug-In . SVG Version: 1.2.0 Build 176)  -->
  <g>
    <g id="Ebene_1">
      <path class="cls-2" d="M45.15,46.3c-10.77,10.14-27.73,9.63-37.87-1.15C-2.86,34.38-2.34,17.42,8.43,7.28c10.77-10.14,27.73-9.63,37.87,1.15,10.14,10.77,9.63,27.73-1.15,37.87Z"/>
      <path class="cls-3" d="M.48,21.74c8.23-1.06,16.84,1.7,22.96,8.21,6.12,6.5,8.36,15.26,6.8,23.41-8.23,1.06-16.84-1.7-22.96-8.21C1.16,38.65-1.08,29.89.48,21.74Z"/>
      <path class="cls-1" d="M33.41,12.26l.96,3.5c.38,1.4,1.48,2.49,2.88,2.87l3.51.95-3.5.96c-1.4.38-2.49,1.48-2.87,2.88l-.95,3.51-.96-3.5c-.38-1.4-1.48-2.49-2.88-2.87l-3.51-.95,3.5-.96c1.4-.38,2.49-1.48,2.87-2.88l.95-3.51Z"/>
    </g>
  </g>
</svg>