<?xml version="1.0" encoding="UTF-8"?>
<svg xmlns="http://www.w3.org/2000/svg" version="1.1" viewBox="0 0 600 740">
  <defs>
    <style>
      .cls-1 {
        fill: #fdd417;
      }

      .cls-2 {
        fill: #e83e1e;
      }

      .cls-3 {
        fill: #f0ae18;
      }

      .cls-4 {
        fill: #d52821;
      }

      .cls-5 {
        fill: #821d1f;
      }

      .cls-6 {
        fill: #ea211f;
      }

      .cls-7 {
        fill: #f8760c;
      }
    </style>
  </defs>
  <!-- Generator: Adobe Illustrator 28.7.5, SVG Export Plug-In . SVG Version: 1.2.0 Build 176)  -->
  <g>
    <g id="Ebene_1">
      <g>
        <circle class="cls-2" cx="300" cy="289.5" r="272"/>
        <g>
          <path class="cls-4" d="M158.78,304.1c-2.56-17.32-6.83-34.27-11.36-51.13-7.97-29.69-10.59-59.82-9.73-90.49.57-20.37,8.37-36.57,23.94-49.46,4.45-3.68,8.86-7.58,12-12.59,7.36-6.92,16.22-11.19,25.63-14.48,6.75-.77,13.49-1.55,20.18-2.81,5.49-1.03,9.6-3.44,11.94-8.58,5.92-4.53,13.28-4.96,20.11-6.45,10.66-2.33,21.17-5.01,31.46-8.59.66.09,1.33.18,1.99.28,5,1.07,9.98,1.51,14.93-.27.68.01,1.36.02,2.05.03,1,1.1,2.09,2.1,1.98,3.83-.37,6.32,1.12,12.51,1.08,18.86-.2,30.28-.09,60.56-.1,90.84,0,2.32.18,4.64-.63,6.91-.64,1.8-.48,3.61.7,5.23-1.96.37-3.9.92-5.88,1.09-20.17,1.7-40.24.01-60.24-2.33-15.99-1.87-31.83-2.03-47.66,1.28-3.09.65-4.16,1.91-4.04,4.97.3,8.04-1.39,15.9-2.81,23.74-2.21,12.19-4,24.53-1.93,36.72,2.52,14.86,1.46,28.69-5.97,42.01-3.22,5.78-3.73,12.2-2.92,18.91.62,5.08,1.96,10.15,1.46,15.36.25,1.91-.57,4.02,1.08,5.66.06.14.19.29.17.41-.05.28-.17.55-.26.83-.96,2.54,2.45,6.86-3.07,7.54l.06.07c-.68-5.26-5.77-8.16-6.99-13.13-.12-.77.06-1.71-1.08-1.91l.03.05c-1.2-7.7-4.14-14.93-6.12-22.41Z"/>
          <path class="cls-4" d="M304.02,721.4c-.1.29-.21.57-.32.86-1.37.59-3.03.86-4.05,1.82-6.31,5.86-12.56,4.02-19.96,1.61-26.73-8.7-54.17-15.15-80.74-24.43-15.07-5.27-30.36-9.92-45.21-15.83.44-1.6.91-3.19,1.3-4.81,8.32-34.41,14.23-69.32,21.84-103.88.71-3.22,2.05-6.45,1.43-10.53-9.11,6.68-16.59,14.15-23.45,22.27-2.91,3.44-4.09,7.39-3.95,12,.48,16.79.67,33.59,1.04,50.39.21,9.8.57,19.61.83,29.41.05,2,.28,4.23-2.83,4.08-39.91-13.66-79.8-27.4-117.94-45.53.05-.5.09-1.01.14-1.51,7.35-3.82,14.67-7.72,22.07-11.44,39.87-20.04,79.75-40.05,119.64-60.03,2.37-1.19,4.89-2.07,7.33-3.1,2.55.71,3.38,3.05,4.6,4.96,26.23,40.9,52.43,81.82,78.68,122.7,1.45,2.25,2.71,4.76,5.5,6.76,4.01-17.56,7.72-34.6,11.87-51.54,1.28-5.22,1.01-9.19-3.62-12.59-1.92-1.41-2.99-3.95-4.57-5.88-2.56-3.13-2.54-5.83.02-9.24,6.58-8.76,12.75-17.84,19.08-26.78.44-.03.88-.05,1.32-.08,3.6.49,7.19.97,10.79,1.46.03,42.65.06,85.3.1,127.96,0,0,.06-.07.06-.07-.5.17-1.8-.46-1,1.01Z"/>
          <path class="cls-1" d="M292.75,591.12c-6.33,8.95-12.5,18.02-19.08,26.79-2.56,3.41-2.58,6.11-.02,9.24,1.58,1.93,2.65,4.46,4.57,5.88,4.63,3.4,4.9,7.38,3.62,12.59-4.15,16.94-7.86,33.98-11.87,51.54-2.78-2.01-4.05-4.51-5.5-6.76-26.25-40.88-52.45-81.8-78.68-122.7-1.23-1.91-2.06-4.25-4.6-4.96.48-3.87,4.47-5.3,5.93-8.49,11.55-11.22,20.32-24.25,25.78-39.45.33-.92.85-1.77,1.28-2.66-.23,13.69,7.71,23.29,16.56,32.2,12.6,12.68,27.03,23.08,42.27,32.37,2.06,2.45,5.13,3.5,7.53,5.46,3.92,3.2,9.21,4.51,12.21,8.95Z"/>
          <path class="cls-5" d="M149.95,684.35c3.11.15,2.88-2.08,2.83-4.08-.26-9.8-.61-19.61-.83-29.41-.37-16.8-.56-33.59-1.04-50.39-.13-4.6,1.05-8.56,3.95-12,6.86-8.12,14.34-15.59,23.45-22.27.62,4.08-.72,7.31-1.43,10.53-7.61,34.56-13.53,69.47-21.84,103.88-.39,1.61-.87,3.21-1.3,4.81-1.36-.02-2.75.08-3.79-1.07Z"/>
          <path class="cls-6" d="M299.87,59.55c-4.95,1.77-9.93,1.33-14.93.26.12-.16.2-.33.22-.53.29-.09.54-.25.76-.47.99.03,1.98.06,2.97.09,3.6,1.23,7.33.12,10.97.63Z"/>
          <path class="cls-5" d="M285.16,59.29c-.03.2-.1.37-.22.53-.66-.09-1.33-.18-1.99-.27.68-.62,1.41-.74,2.21-.25Z"/>
          <path class="cls-6" d="M370.49,73.43c7.75,4.92,16.5,7.78,24.61,11.99,5.42,2.81,10.34,6.16,13.63,11.34,2.53,4,6.09,6.48,10.19,8.46,1.95.94,3.86,1.95,5.78,2.93,9.62,4.92,16.24,11.88,18.77,23,4.57,20.04,10.21,39.84,14.09,60.04,2.39,12.46,1.93,24.97-1.76,37.04-6.11,19.95-10.37,40.23-12.94,60.9-.23,1.81-.7,3.59-1.06,5.38-1.03,7.11-6.01,10.23-12.96,12.04,0-4,.24-8.07-.05-12.11-.64-8.74-2.21-17.26-7.18-24.76v-.1c.24-1.17.32-2.29-1-2.93l.02-.05c.3-1.5-.13-2.92-.32-4.4-.55-4.23-1.86-8.35-1.27-12.74,1.64-12.27,3.16-24.62.65-36.91-1.23-6.03-1.14-12.53-5.04-17.84l-.04-.11c.24-1.15.34-2.26-.99-2.88l-.03-.09c.47-1.86-.07-3.26-1.86-4.09-.16-.15-.21-.33-.13-.54.17-.96.05-1.81-.94-2.3l-.03-.05c.33-1.81.07-3.32-1.99-3.92l.05-.03c-.28-.38-.56-.77-.84-1.15-.17-.15-.23-.33-.19-.55-.28-.45-.56-.91-.84-1.36l-.05-.05c.04-.84-.23-1.51-1.04-1.89v-.06c-.31-.33-.6-.67-.9-1,0,0-.05-.06-.05-.06-.29-.33-.58-.66-.87-.99l-.07-.1c-.04-.83-.34-1.47-1.21-1.72h-.02c-.17-1.16-.82-1.82-1.98-1.96l.19-.21-.2.19c-.32-1.59-1.4-2.15-2.9-2.14-7.05-4.31-14.64-5.38-22.57-3.36-4.51,1.15-8.91,2.74-13.3,4.28-16.8,5.9-33.37,12.49-50.98,15.76-.77-.79-1.44-.64-2.03.23-1.32.39-2.64.78-3.96,1.18l.05-.45c-1.19-1.61-1.34-3.43-.7-5.23.81-2.28.63-4.6.63-6.91.01-30.28-.1-60.56.1-90.84.04-6.34-1.45-12.54-1.08-18.86.1-1.73-.99-2.73-1.98-3.83.68-.2,1.36-.41,2.04-.61.94.09,1.88.18,2.82.27.72.07,1.44.14,2.15.21,21.22,1.58,41.7,6.44,61.57,13.98Z"/>
          <path class="cls-2" d="M304.96,720.46c-.03-42.65-.06-85.3-.1-127.96,1.33-.17,2.66-.35,3.99-.52,2.55.3,4.13,2.04,5.58,3.87,4.23,5.35,8.17,10.97,12.68,16.07,3.36,3.81,3.38,6.94.27,10.8-2.28,2.83-3.81,6.26-5.96,9.22-1.39,1.92-1.91,3.79-1.38,6.05,5,21.38,9.95,42.77,15.03,64.13.39,1.64.38,4.21,2.47,4.42,1.76.18,2.28-2.21,3.08-3.58,18.98-32.68,37.93-65.38,56.83-98.1,8.65-14.98,17.17-30.02,25.75-45.04,6.07,3.32,13.26,4.64,18.08,10.18-2.37,5.35-.62,10.85-.62,16.28.02,16.82.02,33.64.05,50.45,0,1.81-.32,3.71.78,5.35,5.18,7.74,10.36,15.48,15.59,23.19.58.86.96,2.23,2.61,1.7,2.75-.89,7.33-9.22,6.5-12.15-4.14-14.56-8.43-29.07-12.45-43.67-3.57-12.97-8.22-25.65-10.85-38.88.85-.47,1.59-.07,2.33.31,38.12,19.42,77.98,35.14,116.07,54.63,2.76,1.41,5.54,2.79,9.41,4.74-13.06,4.71-24.88,9.15-36.82,13.24-49.59,16.98-99.21,33.86-148.83,50.75-20.96,7.13-42.13,13.58-63.52,19.28-5.61,1.49-10.73,4.51-16.58,5.23Z"/>
          <path class="cls-1" d="M423.2,559.84c-8.58,15.01-17.11,30.06-25.75,45.04-18.9,32.73-37.85,65.42-56.83,98.1-.8,1.37-1.32,3.76-3.08,3.58-2.1-.21-2.09-2.79-2.47-4.42-5.07-21.36-10.03-42.75-15.03-64.13-.53-2.26,0-4.13,1.38-6.05,2.14-2.96,3.68-6.38,5.96-9.22,3.11-3.86,3.09-6.99-.27-10.8-4.51-5.11-8.44-10.72-12.68-16.07-1.45-1.83-3.03-3.58-5.58-3.87-4.82-1.33-3.68-5.42-4.09-8.8.09-.31.18-.62.28-.93.88-.45,1.85-.78,2.62-1.38,12.7-9.95,25.28-20.06,38.09-29.87,16.71-12.8,29.83-28.35,37.93-47.94,1.35-3.28,2.27-6.6,2.28-10.15,1.4,2.36,1.35,5.1,1.68,7.65,2.81,22.28,14.69,38.55,33.05,50.64,3.26,2.17,5.81,4.54,2.53,8.63Z"/>
          <path class="cls-5" d="M442.89,572.29c2.63,13.23,7.28,25.91,10.85,38.88,4.02,14.59,8.32,29.11,12.45,43.67.83,2.93-3.75,11.25-6.5,12.15-1.65.54-2.03-.84-2.61-1.7-5.23-7.7-10.42-15.44-15.59-23.19-1.09-1.64-.78-3.54-.78-5.35-.03-16.82-.04-33.64-.05-50.45,0-5.43-1.75-10.93.62-16.28.54.39,1.08.78,1.62,1.18-.1.14-.29.29-.27.4.05.27.19.53.3.79l-.03-.1Z"/>
          <path class="cls-5" d="M303.95,58.97c-.68.2-1.36.41-2.04.61-.68-.01-1.36-.02-2.05-.03-3.64-.52-7.38.6-10.97-.63,5.02-.74,10.04-.73,15.06.05Z"/>
          <path class="cls-5" d="M308.92,59.45c-.72-.07-1.44-.14-2.15-.21.77-.5,1.48-.36,2.15.21Z"/>
          <path class="cls-2" d="M304.02,721.4c-.8-1.46.5-.83,1-1.01-.33.34-.67.67-1,1.01Z"/>
          <path class="cls-2" d="M442.93,572.38c-.11-.26-.25-.52-.3-.79-.02-.12.17-.27.27-.4,0,.4.02.79.03,1.19Z"/>
          <path class="cls-3" d="M158.78,304.1c1.98,7.49,4.92,14.71,6.12,22.41-3.35-3.24-3.69-7.97-5.85-11.82-3.58-6.37-8.21-10.83-16.42-10.52,3.9,7.21,7.66,14.02,11.27,20.91,4.7,8.99,8.64,18.3,11.64,28,.54,1.73,1.19,3.7,3.63,3.31,2.32-.37,2-2.56,2.02-4.01.03-3.3-.26-6.61-.62-9.9-.37-3.38,1.15-1.68,2.35-.98,0,0-.06-.07-.06-.07,1.81,4.87,4.23,9.36,8.06,12.97.08.06.17.12.25.18-.1-.04-.21-.08-.31-.12-1.23-6.96-2.7-13.85-4.93-20.57.09-.27.21-.54.26-.83.02-.13-.11-.28-.17-.42-.16-1.93,0-3.91-1.08-5.66.5-5.21-.84-10.27-1.46-15.36-.81-6.71-.31-13.13,2.92-18.91,7.43-13.32,8.49-27.16,5.97-42.01-2.07-12.2-.28-24.54,1.93-36.72,1.42-7.84,3.1-15.7,2.81-23.74-.11-3.06.95-4.32,4.04-4.97,15.83-3.32,31.67-3.16,47.66-1.28,20,2.34,40.07,4.03,60.24,2.33,1.98-.17,3.92-.72,5.88-1.09,0,0-.05.45-.05.45.88,52.29-1.37,104.56-.98,156.86.25,33.59.06,67.18.07,100.77-14.1.05-28.2.06-42.29.18-1.94.02-4.86-.9-4.7,2.63.14,3.12,2.83,2.21,4.62,2.22,14.43.07,28.86.04,43.29.04.02,25.95.04,51.9.06,77.85-2.26.12-4.52.23-6.78.35-19.65-1.59-36.02-10.38-50.76-22.9-10.72-9.1-21.61-18.01-32.43-27-23.16-23.48-31.26-53.07-34.09-84.69-.41-4.62-1.41-6-6.19-4.52-6.96,2.16-12.28-.96-16.26-6.69-6.02-8.67-8.32-18.83-11.16-28.71-3.53-12.31-6.49-24.78-9.55-37.22-2.45-9.98,1.11-13.88,11.22-12.47,3.29.46,6.55,1.13,9.83,1.71ZM202.84,312.63q-.24,5.67,6.15,2.76c4.99-2.27,10.03-4.45,14.96-6.84,2.58-1.25,4.9-1.25,7.63-.34,12.91,4.34,25.91,8.41,38.84,12.71,3,1,4.48.88,4.82-2.86.55-6.11,1.56-12.19,2.58-18.25.48-2.83-.28-4.02-3.19-4.85-14.55-4.11-28.99-8.57-43.52-12.78-4.44-1.29-8.85-2.87-13.61-2.77-7.41.15-12.54,4.55-13.2,11.8-.61,6.62-.92,13.26-1.46,21.41Z"/>
          <path class="cls-4" d="M214.98,476.69c10.82,8.99,21.71,17.9,32.43,27,14.74,12.52,31.11,21.31,50.76,22.9,2.05,1.87,6.98-1.06,6.83,4.87-.37,14.55-.17,29.12-.08,43.69.01,2.37-2.02,4.79.13,7.11-.1.31-.19.62-.28.93-.67.22-1.35.44-2.02.65-9.28-5.01-19.37-6.66-29.74-7.13-15.24-9.29-29.67-19.69-42.27-32.37-8.85-8.91-16.8-18.51-16.56-32.2.34-11.82-.51-23.66.81-35.46Z"/>
          <path class="cls-5" d="M172.93,341.51c-1.21-.7-2.72-2.4-2.35.98.36,3.29.65,6.6.62,9.9-.02,1.46.31,3.64-2.02,4.01-2.44.39-3.1-1.58-3.63-3.31-3-9.7-6.94-19.02-11.64-28-3.61-6.89-7.38-13.7-11.27-20.91,8.21-.3,12.84,4.16,16.42,10.52,2.16,3.85,2.5,8.58,5.85,11.82,0,0-.03-.05-.03-.05-.26.98-.04,1.7,1.08,1.91,1.22,4.97,6.31,7.87,6.99,13.13Z"/>
          <path class="cls-5" d="M180.93,354.42c-3.83-3.62-6.25-8.1-8.06-12.97,5.53-.68,2.11-5,3.07-7.54,2.22,6.72,3.7,13.61,4.93,20.57l.06-.06Z"/>
          <path class="cls-5" d="M174.96,327.01c1.09,1.75.91,3.73,1.08,5.66-1.65-1.64-.83-3.75-1.08-5.66Z"/>
          <path class="cls-3" d="M165.94,328.38c-1.12-.21-1.33-.93-1.08-1.91,1.13.2.96,1.14,1.08,1.91Z"/>
          <path class="cls-7" d="M273.01,576.71c10.37.47,20.46,2.12,29.74,7.12-2.15,3.29-6.2,4.31-8.68,7.21-.44.03-.88.05-1.32.08-3-4.44-8.29-5.75-12.21-8.95-2.4-1.96-5.47-3.01-7.53-5.46Z"/>
          <path class="cls-3" d="M294.07,591.05c2.48-2.9,6.52-3.92,8.68-7.21.67-.21,1.34-.43,2.02-.65.4,3.38-.74,7.47,4.09,8.8-1.33.17-2.66.34-3.99.52-3.6-.49-7.19-.97-10.79-1.46Z"/>
          <path class="cls-1" d="M304.95,526.24c-.02-25.95-.04-51.9-.06-77.85,1.66-.02,3.33-.06,4.99-.06,10.81-.03,21.62-.04,32.43-.08,1.29,0,2.8.23,3.4-1.39.35-.95.33-2.03-.49-2.77-1.1-.99-2.53-.63-3.83-.64-12.47-.06-24.94-.09-37.41-.14,0-33.59.18-67.18-.07-100.77-.38-52.29,1.86-104.56.98-156.86,1.32-.39,2.64-.78,3.96-1.18.68-.08,1.35-.15,2.03-.23,17.6-3.28,34.18-9.87,50.98-15.76,4.4-1.54,8.8-3.14,13.3-4.28,7.93-2.02,15.52-.95,22.57,3.36.72,1.05,1.62,1.85,2.9,2.14l.2-.19s-.19.21-.19.21c.28,1.04.94,1.69,1.98,1.96,0,0,.02,0,.02,0,.4.57.8,1.15,1.2,1.73,0,0,.07.1.07.1.29.33.58.66.87.99,0,0,.05.06.05.06.3.33.59.67.89,1,0,0,0,.06,0,.06-.02.83.25,1.5,1.04,1.89,0,0,.05.05.05.05.28.45.56.91.84,1.36-.04.22.02.41.19.55.28.38.56.77.84,1.15,0,0-.05.03-.05.03.15,1.56.7,2.93,1.98,3.92,0,0,.03.05.03.05.31.77.63,1.53.94,2.3-.08.21-.04.39.13.54.08,1.61.51,3.06,1.86,4.09,0,0,.03.09.03.09-.1,1.11-.06,2.17.98,2.88,0,0,.04.11.04.11.07.82-.01,1.69.22,2.46,4.79,15.97,5.64,32.13,3.26,48.64-1,6.96-1.19,14.22,2.51,20.8,0,0-.02.05-.02.05-.02,1.1.03,2.17,1,2.93,0,0,0,.1,0,.1,6.27,16.26,6.45,33.04,4.26,50.03-.43,3.34-1.58,6.67-.8,10.47,3.64-1.31,5.73-4.8,9.83-5.53-1.68,7.9-3.66,15.26-4.31,22.85-.08.99-.57,2.13.85,2.35.9.14,1.41-.73,1.66-1.57.37-1.28.71-2.56,1.04-3.85,2.94-11.47,6.15-22.83,14.45-31.88.54-.59,1.3-1.27.78-2.16-.63-1.06-1.71-.8-2.66-.49-3.76,1.22-5.75,4.74-9.14,7.64-.96-5.74-.99-10.41,3.44-14.03,3.06-1.34,6.16-2.53,9.5-2.93,5.56-.66,8.21,1.52,8.34,7.14.2,8.39-1.58,16.56-3.18,24.71-2.47,12.58-5.59,25.01-9.64,37.2-4.21,12.68-7.79,15.39-21.3,15.4-2.96,0-2.68,1.72-2.96,3.47-1.58,10.19-3.06,20.4-4.76,30.58-3.19,19.09-11.87,35.54-24.5,50.03-2.41,2.76-4.8,5.53-7.2,8.3-10.54,10.6-20.34,21.98-32.14,31.28-14.12,11.14-30.14,17.21-48.22,17.57ZM397.93,312.54c-.39-5.13-.97-10.26-1.14-15.4-.26-7.76-1.86-14.3-10.66-16.79-4.35-1.23-8.54-1.48-12.74-.26-15.79,4.62-31.52,9.46-47.32,14.06-2.95.86-3.54,2.56-3.21,5.17.81,6.59,1.68,13.17,2.35,19.78.37,3.67,1.64,4.78,5.42,3.4,8.27-3.01,17.18-4.65,24.96-8.58,13.13-6.64,24.89-5.56,36.93,2.31,5.27,3.45,5.64,2.89,5.41-3.69Z"/>
          <path class="cls-2" d="M304.95,526.24c18.07-.36,34.09-6.42,48.22-17.57,11.8-9.31,21.6-20.68,32.14-31.28.21,5.17.43,10.35.64,15.53,0,3.56-.92,6.88-2.27,10.15-8.09,19.59-21.21,35.14-37.93,47.94-12.81,9.81-25.39,19.92-38.09,29.87-.76.6-1.74.93-2.62,1.38-2.14-2.32-.11-4.75-.13-7.11-.09-14.56-.29-29.13.08-43.69.15-5.94-4.77-3-6.83-4.87,2.26-.12,4.52-.23,6.78-.35Z"/>
          <path class="cls-2" d="M441.01,303.5c-4.43,3.62-4.4,8.29-3.44,14.03,3.39-2.9,5.38-6.42,9.14-7.64.96-.31,2.03-.57,2.66.49.53.89-.24,1.57-.78,2.16-8.3,9.05-11.5,20.4-14.45,31.88-.33,1.29-.68,2.57-1.04,3.85-.24.84-.76,1.71-1.66,1.57-1.42-.22-.94-1.37-.85-2.35.65-7.59,2.63-14.95,4.31-22.85-4.1.73-6.19,4.22-9.83,5.53-.77-3.79.38-7.13.8-10.47,2.19-17,2.01-33.77-4.26-50.03,4.96,7.51,6.54,16.03,7.18,24.76.29,4.04.05,8.12.05,12.11,6.95-1.81,11.93-4.92,12.96-12.04.41,3.05-.35,6.01-.79,8.99Z"/>
          <path class="cls-2" d="M420.63,266.59c-3.7-6.58-3.51-13.83-2.51-20.8,2.38-16.51,1.54-32.67-3.26-48.64-.23-.77-.15-1.64-.22-2.46,3.9,5.31,3.81,11.81,5.04,17.85,2.51,12.29,1,24.64-.65,36.91-.59,4.39.72,8.52,1.27,12.74.19,1.47.62,2.9.32,4.4Z"/>
          <path class="cls-2" d="M413.6,191.6c-1.36-1.03-1.78-2.48-1.86-4.09,1.79.83,2.34,2.23,1.86,4.09Z"/>
          <path class="cls-2" d="M410.63,184.62c-1.28-.99-1.83-2.36-1.98-3.92,2.06.6,2.32,2.11,1.98,3.92Z"/>
          <path class="cls-2" d="M400.63,169.75c-1.28-.29-2.18-1.09-2.9-2.14,1.5-.01,2.58.55,2.9,2.14Z"/>
          <path class="cls-2" d="M414.61,194.58c-1.04-.72-1.09-1.78-.98-2.88,1.33.62,1.22,1.73.98,2.88Z"/>
          <path class="cls-2" d="M421.61,269.57c-.97-.76-1.02-1.83-1-2.93,1.32.64,1.24,1.75,1,2.93Z"/>
          <path class="cls-2" d="M402.63,171.72c-1.04-.26-1.7-.92-1.98-1.96,1.16.15,1.82.8,1.98,1.96Z"/>
          <path class="cls-2" d="M406.78,177.54c-.78-.39-1.06-1.06-1.04-1.89.81.37,1.07,1.05,1.04,1.89Z"/>
          <path class="cls-2" d="M403.86,173.45c-.4-.58-.8-1.15-1.2-1.73.86.25,1.16.9,1.2,1.73Z"/>
          <path class="cls-2" d="M411.61,186.97c-.31-.77-.63-1.53-.94-2.3.99.49,1.11,1.34.94,2.3Z"/>
          <path class="cls-4" d="M310.88,184.3c-.68.08-1.35.15-2.03.23.59-.87,1.26-1.01,2.03-.23Z"/>
          <path class="cls-2" d="M405.73,175.6c-.3-.33-.59-.67-.89-1,.3.33.59.67.89,1Z"/>
          <path class="cls-2" d="M404.79,174.53c-.29-.33-.58-.66-.87-.99.29.33.58.66.87.99Z"/>
          <path class="cls-2" d="M408.69,180.66c-.28-.38-.56-.77-.84-1.15.28.38.56.77.84,1.15Z"/>
          <path class="cls-2" d="M407.66,178.95c-.28-.45-.56-.91-.84-1.36.28.45.56.91.84,1.36Z"/>
          <path class="cls-5" d="M202.84,312.63c.54-8.15.85-14.79,1.46-21.41.67-7.25,5.79-11.65,13.2-11.8,4.76-.1,9.17,1.48,13.61,2.77,14.52,4.21,28.97,8.66,43.52,12.78,2.92.82,3.67,2.02,3.19,4.85-1.02,6.06-2.02,12.14-2.58,18.25-.34,3.74-1.82,3.86-4.82,2.86-12.92-4.3-25.93-8.37-38.84-12.71-2.73-.92-5.05-.91-7.63.34-4.93,2.39-9.97,4.57-14.96,6.84q-6.4,2.91-6.15-2.76Z"/>
          <path class="cls-7" d="M303.98,443.32c12.47.04,24.94.07,37.41.14,1.3,0,2.73-.35,3.83.64.82.73.83,1.82.49,2.77-.59,1.62-2.11,1.38-3.4,1.39-10.81.05-21.62.06-32.43.08-1.66,0-3.33.04-4.99.06-14.43,0-28.86.03-43.29-.04-1.78,0-4.47.9-4.62-2.22-.16-3.54,2.76-2.62,4.7-2.63,14.1-.11,28.2-.13,42.29-.18Z"/>
          <path class="cls-5" d="M180.87,354.48c.1.04.21.08.31.12-.08-.06-.17-.12-.25-.18,0,0-.06.06-.06.06Z"/>
          <path class="cls-7" d="M397.93,312.54c.23,6.57-.14,7.13-5.41,3.69-12.03-7.86-23.8-8.95-36.93-2.31-7.77,3.93-16.68,5.57-24.96,8.58-3.78,1.38-5.04.27-5.42-3.4-.67-6.6-1.54-13.19-2.35-19.78-.32-2.61.27-4.31,3.21-5.17,15.8-4.6,31.52-9.44,47.32-14.06,4.19-1.23,8.39-.97,12.74.26,8.8,2.49,10.41,9.03,10.66,16.79.17,5.14.74,10.27,1.14,15.4Z"/>
        </g>
      </g>
    </g>
  </g>
</svg>