<?xml version="1.0" encoding="UTF-8"?>
<svg xmlns="http://www.w3.org/2000/svg" version="1.1" viewBox="0 0 600 740">
  <defs>
    <style>
      .cls-1 {
        fill: #0ff6d6;
      }

      .cls-2 {
        fill: #5b9e5e;
      }

      .cls-3 {
        fill: #25cf6b;
      }

      .cls-4 {
        fill: #22c47b;
      }

      .cls-5 {
        fill: #e83e1e;
      }

      .cls-6 {
        fill: #21e975;
      }

      .cls-7 {
        fill: #1d8d4d;
      }

      .cls-8 {
        fill: #21dd93;
      }

      .cls-9 {
        fill: #26b360;
      }

      .cls-10 {
        fill: #10f5cc;
      }

      .cls-11 {
        fill: #1e7542;
      }

      .cls-12 {
        fill: #1a965a;
      }

      .cls-13 {
        fill: #fafcfd;
      }

      .cls-14 {
        fill: #d52821;
      }

      .cls-15 {
        fill: #16a970;
      }

      .cls-16 {
        fill: #1e7f44;
      }
    </style>
  </defs>
  <!-- Generator: Adobe Illustrator 28.7.5, SVG Export Plug-In . SVG Version: 1.2.0 Build 176)  -->
  <g>
    <g id="Ebene_1">
      <g>
        <circle class="cls-2" cx="300" cy="289.5" r="272"/>
        <g>
          <path class="cls-6" d="M272.32,717.52c-11.93-4.12-23.9-8.1-35.77-12.38-58.07-20.92-116.11-41.9-174.14-62.93-8.22-2.98-16.3-6.32-25.16-9.77,7.54-5.38,14.92-9.15,22.2-13.02,39.32-20.94,78.81-41.56,118.89-61.03,1.34-.65,2.76-1.15,4.14-1.72,1.05,1.69,2.17,3.35,3.15,5.08,19.27,33.91,38.56,67.81,57.76,101.76,6.6,11.67,13.68,23.09,19.46,35.22.33.53.66,1.06.99,1.59l-.03-.05c0,.87.3,1.59,1.1,2.03l-.05-.1c-.04.91.2,1.67,1.12,2.06l-.06-.1c-.07.95.19,1.69,1.2,1.98l-.06-.08c.17,3.33.75,5.86,5.01,6.61,2.42.43,4.53,2.98.25,4.85ZM164.91,672.24c0-1.98-.03-3.96,0-5.95.53-30.79-1.02-61.49-4.16-92.12-.15-1.49,1.24-4.19-1.71-4.16-2.23.02-3.2,1.93-3.28,4.26-.25,7.31-.71,14.61-.93,21.91-.43,13.8.85,27.67-.96,41.39-1.75,13.26,3.32,24.22,11.04,34.66Z"/>
          <path class="cls-13" d="M262.84,698.72c-5.77-12.13-12.85-23.55-19.46-35.22-19.21-33.95-38.49-67.85-57.76-101.76-.98-1.73-2.1-3.39-3.15-5.08,1.87-1.76,3.73-3.51,5.59-5.27,10.41-7.35,18.34-16.88,24.54-27.93-.22,9.53,3.85,16.92,11.25,22.69,1.7,1.33,3.2,2.9,4.86,4.28,20.89,17.39,43.99,31.37,68.01,43.92-6.74,7.79-13.4,15.65-20.3,23.3-1.81,2.01-1.4,3.31.02,5.02,2.96,3.59,5.78,7.3,8.82,10.82,1.78,2.06,2.25,3.97,1.45,6.72-4.58,15.78-8.07,31.85-11.61,47.89-1.65,7.46-3.03,14.99-4.64,23.06-1.42-2.14-2.41-3.63-3.4-5.11,0,0,.06.08.06.08-.15-.81-.38-1.58-1.2-1.98,0,0,.06.1.06.1-.37-.69-.75-1.37-1.12-2.06,0,0,.05.1.05.1-.03-.85-.34-1.56-1.09-2.03,0,0,.03.05.03.05-.33-.53-.66-1.06-.99-1.59Z"/>
          <path class="cls-3" d="M267.06,706.05c.99,1.48,1.97,2.97,3.4,5.11,1.62-8.07,3-15.59,4.64-23.06,3.54-16.04,7.03-32.1,11.61-47.89.8-2.76.33-4.66-1.45-6.72-3.04-3.52-5.86-7.23-8.82-10.82-1.41-1.71-1.83-3.01-.02-5.02,6.9-7.64,13.55-15.51,20.3-23.3,4.29-.36,8.55,2.27,12.86.16.32.72.5,1.58,1,2.15,5.49,6.22,10.83,12.61,16.67,18.5,2.48,2.5,1.82,3.86.05,6.04-3.46,4.25-6.65,8.71-10.06,12.99-1.23,1.55-1.73,3.07-1.36,5.03,5.01,26.41,9.98,52.82,14.96,79.24-.23.84-.65,1.49-1.54,1.8-7.99,2.74-16.15,5.04-23.63,9.09-.95-.15-1.9-.29-2.85-.44-10.17-3.8-20.33-7.59-30.5-11.39,4.28-1.87,2.17-4.42-.25-4.85-4.25-.76-4.84-3.29-5.01-6.61Z"/>
          <path class="cls-10" d="M305.67,729.34c7.48-4.05,15.64-6.34,23.63-9.09.89-.3,1.31-.95,1.54-1.8,3.29-.18,2.83-3.85,4.84-5.22.14,2.17-.79,4.1-1.48,6.06-1.11,3.15.22,4.18,3.2,3.95-8.73,3.15-17.14,7.37-26.66,7.8,0,0-.27-.06-.27-.06,0,0-.14.24-.14.23-1.01-1.02-2.29-1.08-3.61-.98l-.29-.14s-.31.09-.32.09c-.15-.28-.3-.57-.44-.85Z"/>
          <path class="cls-10" d="M302.82,728.91c.95.15,1.9.29,2.85.44.15.28.3.57.44.85"/>
          <path class="cls-10" d="M337.39,723.25c-2.98.23-4.3-.8-3.2-3.95.69-1.96,1.62-3.89,1.48-6.06,0,0-.02.06-.02.06.36-.64.72-1.28,1.09-1.92.77-1.65,1.46-3.34,2.33-4.94,22.76-41.45,45.96-82.65,69.64-123.58,4.24-7.33,7.8-15.1,13.11-21.79,31.11,15.89,62.25,31.74,93.33,47.68,14.06,7.21,28.03,14.62,42.02,21.97,2.19,1.15,4.28,2.47,6.8,3.94-4.4,3.04-9.04,4.3-13.42,6.08-67.64,27.55-135.59,54.33-204.17,79.48-2.97,1.09-5.99,2.02-8.98,3.02Z"/>
          <path class="cls-13" d="M421.82,561.08c-5.31,6.7-8.86,14.46-13.11,21.79-23.68,40.93-46.88,82.13-69.64,123.58-.87,1.59-1.56,3.29-2.33,4.94-.36.64-.72,1.28-1.09,1.92,0,0,.02-.06.02-.06-2.01,1.37-1.55,5.04-4.84,5.22-4.98-26.41-9.95-52.83-14.96-79.23-.37-1.96.13-3.49,1.36-5.03,3.41-4.28,6.61-8.74,10.06-12.99,1.77-2.17,2.43-3.54-.05-6.04-5.84-5.89-11.18-12.27-16.67-18.5-.5-.57-.67-1.43-.99-2.15,24.76-12.89,47.56-28.54,68.55-47,7.16-6.29,10.6-13.32,10.62-22.49,0-2.49.11-4.99.17-7.48,3.46,5.18,6.81,10.44,10.4,15.53,4.01,5.68,8.48,10.98,13.79,15.51,1.82,3.26,5.6,4.39,7.87,7.5,1.54,2.1,1.08,3.25.84,4.99Z"/>
          <path class="cls-16" d="M152.96,296.22c-1.74-11.99-4.52-23.8-5.73-35.88-2.11-21.1-2.67-42.11,2.53-62.92,2.59-10.37,8.51-19.11,13.78-28.13,7.12-12.2,14.77-24.11,22.18-36.14,13.05-21.19,32.3-30.8,56.87-30.45,19.49.28,38.87-.91,58.1-4.17,13.13-.06,26.23-.03,39.21,2.58,20.32,4.08,38.47,12.78,54.64,25.51,18.18,14.32,33.66,30.98,44.6,51.74,15.82,30.02,17.9,61.39,11.11,94.01-2.67,12.86-6.51,25.4-9.4,38.19-4.5,9.85-7.03,20.44-11.54,30.48,2.17-6.22-1.3-11.48-2.35-17.07-4.26-22.52-11.26-43.92-22.59-64.12-10.83-19.31-15.83-40.53-14.47-62.9.31-5.04,1.04-10.05,1.63-15.58-1.48.59-2.41.89-3.28,1.33-16.57,8.32-33.92,14.62-51.74,19.6-10.87,3.04-21.9,5.51-32.85,8.24-4.29,1.45-8.58,2.9-12.87,4.35-1.14.1-2.3.11-3.43.31-20.94,3.88-42.01,6.38-63.33,6.37-6.49,0-12.97.12-19.41-.95-2.74-.45-4.31.19-5.08,3.62-3.1,13.8-7.33,27.31-12.01,40.65-8.66,24.69-14,49.9-12.71,76.24.06,1.18.69,2.68-.96,3.63-.52-.38-1.06-.75-1.56-1.15-6.22-4.94-8.67-12.12-10.98-19.23-3.03-9.31-5.6-18.77-8.36-28.17Z"/>
          <path class="cls-1" d="M303.66,210.54c10.96-2.73,21.98-5.2,32.85-8.24,17.82-4.99,35.17-11.29,51.74-19.6.87-.44,1.8-.73,3.28-1.33-.59,5.54-1.32,10.55-1.63,15.58-1.36,22.37,3.65,43.59,14.47,62.9,11.33,20.2,18.33,41.61,22.59,64.12,1.06,5.59,4.53,10.85,2.35,17.07,4.5-10.05,7.04-20.63,11.54-30.48,3.74-1.71,6.77-4.75,10.97-5.65,5.06-1.08,8.33,1.52,7.79,6.5-1.84,16.95-3.56,33.93-6.94,50.67-1.41,7-3,13.97-6.42,20.35-4.37,8.15-9.87,10.48-18.48,7.48-3.16-1.1-4.59-1.62-5.34,2.89-2.6,15.68-4.53,31.48-8.82,46.87-4,14.33-12.07,26.09-21.71,37.02-.76.87-1.46,1.79-2.18,2.69-1.26,1.05-2.6,2.03-3.78,3.17-8.59,8.29-17.03,16.75-25.76,24.9-15.85,14.8-34.54,22.47-56.43,21.71.02-25.19.05-50.39.07-75.58,3.48-.04,6.96-.11,10.45-.12,9.46-.01,18.91.02,28.37-.02,1.71,0,4.06.54,3.95-2.35-.1-2.57-2.22-2.47-4.06-2.54-1.16-.04-2.32-.02-3.48-.02-11.78-.06-23.56-.13-35.33-.19-.06-4.69-.13-9.39-.19-14.08.01-42.87.03-85.75.04-128.62.03-31.7.07-63.4.1-95.11ZM396.67,325.36c-1.77-8.68-3.62-16.57-4.89-24.55-.58-3.65-2-4.7-5.52-4.38-19.87,1.78-39.75,3.47-59.64,5.04-2.98.24-3.06,1.86-2.85,4.02.7,7.28,1.59,14.55,2,21.85.22,3.79,1.39,4.37,4.91,3.33,14.52-4.27,29.15-8.17,43.67-12.44,3.13-.92,5.73-.77,8.58.7,4.26,2.19,8.68,4.09,13.73,6.44Z"/>
          <path class="cls-16" d="M303.75,529.17c21.89.76,40.58-6.91,56.43-21.71,8.73-8.15,17.16-16.61,25.76-24.9,1.18-1.14,2.51-2.11,3.78-3.17-.05,10.59-.07,21.19-.18,31.78-.02,2.13-.4,4.26-.61,6.38-.06,2.49-.16,4.99-.17,7.48-.02,9.17-3.46,16.19-10.62,22.49-20.99,18.47-43.79,34.11-68.55,47-4.32,2.11-8.57-.52-12.86-.16-24.02-12.55-47.12-26.53-68.01-43.92-1.66-1.38-3.16-2.96-4.86-4.28-7.4-5.77-11.46-13.16-11.25-22.69,0-1.7-.02-3.39-.02-5.09.09-.32.08-.65-.01-.97,0-12.7,0-25.41,0-38.11,1.76.59,3.22,1.63,4.53,2.93,2.22,2.19,4.28,4.67,7.71,5.03,9.78,11.17,21.4,20.24,33.32,28.92,13.56,9.87,29.27,12.67,45.61,12.98Z"/>
          <path class="cls-9" d="M224.81,487.26c-3.42-.37-5.48-2.84-7.71-5.03-1.32-1.3-2.77-2.34-4.53-2.93-17.49-18.62-23.12-42.04-26.84-66.23-1.01-6.54-1.97-13.09-3.02-19.63-.59-3.66-2.1-5.42-6.48-4.46-10.52,2.3-20.32-2.81-25.37-12.34-7-13.23-10.12-27.62-13.17-42.08-1.37-6.48-2.66-12.96-3.56-19.53-1.28-9.38.64-13.36,10.36-12.55.66.05,1.35-.09,1.99.02,5.11.93,7.03-1.38,6.48-6.27,2.77,9.39,5.34,18.85,8.36,28.16,2.31,7.11,4.76,14.29,10.98,19.23.51.4,1.05.77,1.56,1.15,1.66-.95,1.02-2.45.96-3.63-1.3-26.34,4.04-51.55,12.71-76.24,4.68-13.34,8.91-26.85,12.01-40.65.77-3.43,2.33-4.07,5.08-3.62,6.44,1.07,12.92.95,19.41.95,21.33,0,42.4-2.5,63.33-6.37,1.12-.21,2.28-.21,3.43-.32-1.4,2.37-3.73,3.68-5.9,5.17-23.49,16.04-44.16,35.24-62.69,56.72-4.39,5.09-8.74,10.48-10.39,17.33-3.17,4.79-4.55,10.25-5.36,15.8-.72,4.91-3.31,9.82-.64,14.9-2.26,3.22.01,6.47.11,9.66.37,11.75,1.07,23.49,2.03,35.21,1.44,17.47,3.31,34.9,4.8,52.37,1.08,12.7,2.84,25.3,4.68,37.9,1.38,9.42,5.19,18.14,7.37,27.31Z"/>
          <path class="cls-14" d="M212.56,517.41c.1.32.1.64.01.97-.09-.22-.2-.44-.24-.67-.02-.08.15-.2.23-.3Z"/>
          <path class="cls-11" d="M164.91,672.24c-7.73-10.44-12.79-21.4-11.04-34.66,1.81-13.72.54-27.59.96-41.39.23-7.31.68-14.61.93-21.91.08-2.33,1.04-4.24,3.28-4.26,2.95-.02,1.56,2.67,1.71,4.16,3.14,30.62,4.69,61.32,4.16,92.12-.03,1.98,0,3.96,0,5.95Z"/>
          <path class="cls-13" d="M263.8,700.26c.76.46,1.06,1.17,1.09,2.03-.8-.44-1.09-1.16-1.09-2.03Z"/>
          <path class="cls-13" d="M264.85,702.19c.37.69.75,1.37,1.12,2.06-.92-.39-1.16-1.15-1.12-2.06Z"/>
          <path class="cls-13" d="M265.91,704.15c.82.4,1.05,1.16,1.2,1.98-1.01-.29-1.27-1.03-1.2-1.98Z"/>
          <path class="cls-14" d="M262.84,698.72c.33.53.66,1.06.99,1.59-.33-.53-.66-1.06-.99-1.59Z"/>
          <path class="cls-5" d="M335.65,713.3c.36-.64.72-1.28,1.09-1.92-.36.64-.72,1.28-1.09,1.92Z"/>
          <path class="cls-8" d="M224.81,487.26c-2.19-9.18-6-17.9-7.37-27.31-1.84-12.6-3.6-25.2-4.68-37.9-1.49-17.47-3.36-34.9-4.8-52.37-.96-11.71-1.67-23.46-2.03-35.21-.1-3.19-2.38-6.44-.11-9.66,4.92-3.42,9.94-6.71,14.74-10.29,2.41-1.8,4.4-2.02,7.22-.76,13.86,6.19,28.24,10.9,42.97,14.54,1.52.38,3.57,1.94,4-1.47.87-6.92,1.94-13.81,2.95-20.71.41-2.79-.38-4.29-3.53-4.63-20.8-2.27-41.44-5.97-62.35-7.37,1.66-6.86,6-12.24,10.39-17.33,18.54-21.48,39.2-40.68,62.69-56.72,2.18-1.49,4.51-2.8,5.9-5.17,4.29-1.45,8.58-2.9,12.86-4.34-.03,31.7-.07,63.41-.1,95.11-4.22,13.47-6.7,27.34-8.68,41.26-2.98,20.98-5.39,42.04-7.99,63.08-.28,2.3-.37,4.53,1.43,6.56,5.16,5.82,10.14,11.8,15.2,17.72.06,4.69.13,9.39.19,14.08-.31.05-.61.1-.92.13-14.15-.04-28.3-.09-42.46-.09-1.85,0-4.39-.73-4.33,2.51.06,3.27,2.67,2.35,4.46,2.36,14.15.11,28.3.13,42.46.17.31.03.61.08.91.15-.02,25.19-.05,50.39-.07,75.58-16.35-.31-32.06-3.12-45.62-12.98-11.92-8.67-23.55-17.75-33.32-28.92Z"/>
          <path class="cls-12" d="M396.67,325.36c-5.06-2.35-9.47-4.25-13.73-6.44-2.85-1.46-5.45-1.62-8.58-.7-14.52,4.27-29.15,8.17-43.67,12.44-3.52,1.04-4.7.45-4.91-3.33-.41-7.3-1.3-14.57-2-21.85-.21-2.16-.13-3.78,2.85-4.02,19.89-1.58,39.77-3.26,59.64-5.04,3.52-.32,4.94.74,5.52,4.38,1.27,7.98,3.13,15.88,4.89,24.55Z"/>
          <path class="cls-4" d="M303.52,434.27c-5.05-5.92-10.03-11.9-15.2-17.72-1.8-2.03-1.72-4.26-1.43-6.56,2.6-21.03,5.01-42.1,7.99-63.08,1.98-13.92,4.46-27.79,8.68-41.26-.01,42.88-.03,85.75-.04,128.62Z"/>
          <path class="cls-15" d="M303.82,453.59c-.3-.07-.6-.12-.91-.15-.04-1.65-.08-3.3-.13-4.95.31-.03.62-.08.92-.13,11.78.06,23.55.13,35.33.19,1.16,0,2.32-.02,3.48.02,1.84.07,3.96-.03,4.06,2.54.11,2.88-2.23,2.34-3.95,2.35-9.46.04-18.91,0-28.37.02-3.48,0-6.96.08-10.45.12Z"/>
          <path class="cls-12" d="M211.8,294.11c20.91,1.4,41.55,5.1,62.35,7.37,3.15.34,3.95,1.84,3.53,4.63-1.01,6.9-2.08,13.79-2.95,20.71-.43,3.4-2.48,1.84-4,1.47-14.73-3.64-29.11-8.35-42.97-14.54-2.82-1.26-4.82-1.04-7.22.76-4.8,3.58-9.81,6.88-14.74,10.29-2.67-5.08-.08-9.98.64-14.9.81-5.55,2.18-11,5.36-15.8Z"/>
          <path class="cls-7" d="M302.78,448.49c.04,1.65.08,3.3.13,4.95-14.15-.05-28.3-.07-42.45-.17-1.79-.01-4.4.91-4.46-2.36-.06-3.24,2.49-2.5,4.33-2.51,14.15,0,28.3.05,42.46.09Z"/>
        </g>
      </g>
    </g>
  </g>
</svg>