<?xml version="1.0" encoding="UTF-8"?>
<svg xmlns="http://www.w3.org/2000/svg" version="1.1" viewBox="0 0 600 740">
  <defs>
    <style>
      .cls-1 {
        fill: #068ec3;
      }

      .cls-2 {
        fill: #0698ce;
      }

      .cls-3 {
        fill: #0d3153;
      }

      .cls-4 {
        fill: #112341;
      }

      .cls-5 {
        fill: #06669a;
      }

      .cls-6 {
        fill: #fafcfd;
      }
    </style>
  </defs>
  <!-- Generator: Adobe Illustrator 28.7.5, SVG Export Plug-In . SVG Version: 1.2.0 Build 176)  -->
  <g>
    <g id="Ebene_1">
      <g>
        <circle class="cls-2" cx="300" cy="289.5" r="272"/>
        <g>
          <path class="cls-1" d="M378.72,488.99c1.88,4.47,1.87,9.28,2.18,13.97.26,3.89,1.6,7.35,2.88,10.89.54,1.5,1.62,2.45,3.29,2.57-.64,4.23-2.75,7.82-5.09,11.26-6.76,9.93-14.39,19.14-23.04,27.51-15.44,14.93-33.1,26.75-52.09,36.58-4.3,2.22-3.92,3.64-.91,6.55,4.06,3.93,7.76,8.23,11.59,12.4q6.68,7.27.61,15.38c-1.39,1.87-2.68,3.83-4.22,5.56-1.57,1.76-1.95,3.43-1.51,5.85,3.02,16.52,5.86,33.08,8.67,49.64,1.31,7.73,2.45,15.5,3.83,24.33,1.79-2.7,2.97-4.29,3.95-6,8.39-14.56,16.89-29.04,25.06-43.72,19.9-35.74,39.64-71.56,59.44-107.35,5.18.15,8.51,4.14,12.78,6.19,1.41.68.83,2.39.86,3.67.74,34.64,3.59,69.07,10.8,103.03.98,4.6-.21,6.41-4.83,8.05-43.28,15.35-85.97,32.32-129.41,47.25-4.42,1.52-8.04,1.56-12.25-.73-16.8-9.14-35.55-13.07-53.38-19.47-29.13-10.46-58.32-20.74-87.54-30.95-3.41-1.19-4.39-2.32-3.43-6.26,7.95-32.59,12.61-65.62,11.92-99.26-.06-2.99.87-4.63,3.57-5.67,4.32-1.67,7.97-4.82,12.62-5.8,7.19,12.16,14.43,24.3,21.57,36.5,22.08,37.76,43.81,75.74,67.57,112.49.91,1.4,1.38,3.44,3.49,3.63,3.39-20.26,6.34-40.51,10.34-60.55,1.67-8.37,1.08-15.12-5.32-21.05-1.67-1.55-2.64-3.85-4.18-5.58-1.5-1.68-1.47-2.93-.1-4.72,6.03-7.91,11.92-15.92,17.86-23.9,2.93-.59,5.6.67,8.29,1.36,2.8.71,3.94,0,4.46-2.82.79-4.23,1.93-8.4,2.92-12.6,1.58-.22,2.66-1.29,3.77-2.29,12.54-11.18,25.29-22.14,37.54-33.63,13.7-12.84,27.97-25.39,32.76-44.83.63-2.56,1.75-5,2.65-7.49Z"/>
          <path class="cls-6" d="M286.32,591.28c-5.94,7.98-11.83,15.99-17.86,23.9-1.37,1.79-1.4,3.04.1,4.72,1.54,1.73,2.5,4.02,4.18,5.58,6.4,5.93,6.99,12.68,5.32,21.05-4,20.04-6.95,40.29-10.34,60.55-2.1-.2-2.58-2.23-3.49-3.63-23.76-36.75-45.49-74.73-67.57-112.49-7.13-12.2-14.37-24.33-21.57-36.5,3.42-3.85,7.76-6.83,10.62-11.22,8.29-8.51,13.32-19.26,19.92-28.93.82-1.2,1.09-2.78,2.49-3.58-1.15,10.21,1.05,19.5,7.64,27.56,12.27,15,27.53,26.37,44.09,36.16,1.86,1.32,3.67,2.73,5.6,3.93,6.93,4.33,13.91,8.6,20.87,12.89Z"/>
          <path class="cls-6" d="M413.39,554.41c-19.8,35.79-39.54,71.61-59.44,107.35-8.17,14.67-16.68,29.16-25.06,43.72-.98,1.71-2.17,3.3-3.95,6-1.39-8.83-2.52-16.6-3.83-24.33-2.81-16.56-5.65-33.12-8.67-49.64-.44-2.42-.07-4.09,1.51-5.85,1.55-1.73,2.83-3.7,4.22-5.56q6.05-8.1-.61-15.38c-3.83-4.17-7.53-8.47-11.59-12.4-3-2.91-3.38-4.33.91-6.55,18.99-9.83,36.65-21.65,52.09-36.58,8.65-8.36,16.28-17.57,23.04-27.51,2.34-3.44,4.45-7.03,5.09-11.26,2.8.19,2.5,2.81,3.21,4.41,3.94,9,8.03,17.87,14.98,25.04,2.22,3.3,6.41,4.74,8.12,8.54Z"/>
          <path class="cls-1" d="M554.25,629.7c-38.06,14.82-75.24,28.73-112.83,42.33,1.23-36.34.9-72.13-9.83-108.19,41.49,21.77,81.66,43.41,122.67,65.86Z"/>
          <path class="cls-1" d="M29.84,627.71c39.92-20.59,79.78-41.45,121.01-61.71-1.02,6.46-2.08,12.08-2.77,17.74-3.22,26.78-4.64,53.66-4.03,80.64.05,2.39.86,5.28-3.59,3.69-36.17-12.93-72.38-25.76-108.58-38.62-.76-.27-1.66-.38-2.04-1.73Z"/>
          <path class="cls-5" d="M210.49,476.77c-7.07-7.71-14.47-15.15-19.93-24.21-6.92-11.46-10.34-24.07-12.47-37.1-1.47-9.01-2.72-18.05-4.23-27.05-.35-2.09-.05-5.82-4.22-3.16-8.08,5.14-18.08-.98-20.67-9.03-3.39-10.5-4.96-21.35-6.87-32.13-2.24-12.59-3.59-25.29-4.7-38.02-.56-6.43,2.38-9.67,8.79-9.76,4.01-.06,7.96.35,11.88,1.19,3.32,8.02,4.47,16.65,6.94,24.91,1.85,6.17,3.38,12.45,6.34,18.23-.15-5.21-1.02-10.29-1.15-15.39-.28-10.93,2.69-21.37,5.38-31.83,3.68-14.31,8.24-28.4,8.49-43.41.29-16.78,1.12-33.55,4.07-50.11,2.2-12.34,5.65-24.25,12.54-34.97,2.32-3.62,4.73-4.88,9.02-3.33,8.44,3.06,17.13,5.43,25.58,8.48,20.69,7.45,41.61,7.86,62.8,2.63-.03,35.65-.07,71.29-.09,106.94-.03,54.63-.04,109.27-.06,163.9-2.63.26-5.27.72-7.9.74-11.14.09-22.28.01-33.41.1-1.62.01-4.24-.92-4.39,1.81-.18,3.27,2.73,2.23,4.45,2.24,14.46.08,28.92.04,43.38.04-2.14,1.4-2.05,3.54-2.05,5.74.03,24.38.03,48.76.04,73.14-16.59.24-31.8-3.94-45.08-14.2-12.09-9.34-22.89-20.14-34.17-30.4-2.54-2.31-4.83-4.95-8.29-5.98ZM198.96,313.38c0,2.05-.02,3.55,0,5.05.08,5.6.12,5.71,5.07,3.57,4.73-2.04,9.46-4.13,14-6.56,2.76-1.48,5.12-1.4,8.02-.45,13.28,4.32,26.66,8.35,39.97,12.6,2.65.85,3.91.72,4.13-2.55.49-7.12,1.21-14.24,2.15-21.31.33-2.48-.32-3.12-2.65-3.47-9.04-1.34-18.03-2.94-27.06-4.35-11.65-1.82-23.32-3.53-34.99-5.3-3.3-.5-5.75-.13-6.31,4.06-.86,6.41-2.58,12.71-2.35,18.71Z"/>
          <path class="cls-1" d="M297.92,443.54c.02-54.63.03-109.27.06-163.9.02-35.65.06-71.29.09-106.94,3.06-.82,6.11-1.65,9.17-2.44,14.84-3.82,28.84-10.26,43.72-14.01,7.06-1.78,13.42-.56,19.6,3.15,8.68,5.21,14.21,12.97,18.16,21.97,8.3,18.89,13.69,38.62,15.26,59.18,1.61,21.16,3.89,42.03,12.69,61.73,3.06,6.86,3.5,14.39,2.6,22.05-.87,7.42-3.22,14.62-3.23,22.15-.23.17-.47.34-.7.52.15.12.3.23.45.35.06-.31.12-.62.17-.94,1.4-.82,1.68-2.37,2.34-3.67,7-13.78,10.66-28.72,15.12-43.39,4.3-.35,8.38-2.16,12.77-1.86,6.08.41,7.75,2.19,6.79,8.07-2.36,14.46-6.99,28.36-11.08,42.38-2.74,9.4-5.2,18.9-8.87,28.03-4.5,11.22-7.28,12.63-18.56,8.4-2.08,7.56-1.35,15.4-2.44,23.04-2.68,18.72-4.49,37.61-14.65,54.34-4.27,7.03-10.12,12.7-15.25,18.99-1.24,1.53-3.06,2.65-3.24,4.87-9.18,5.51-16.83,12.96-24.64,20.09-16,14.6-34.42,22.37-56.22,21.65,0-24.38,0-48.76-.04-73.14,0-2.2-.09-4.34,2.05-5.74,12.65,0,25.3,0,37.95,0,.37.45.71.42.99-.09,1.81-3.57.47-4.68-3.25-4.62-12.6.18-25.22,1.52-37.81-.22ZM394.96,313.27c.36-4.76-1-10.05-2.4-15.4-.95-3.64-2.85-4.6-6.41-4.3-20.56,1.77-41.13,3.41-61.7,4.99-2.51.19-3.58.99-3.4,3.61.54,7.8,1.01,15.61,1.37,23.43.16,3.59,1.65,3.92,4.76,2.88,10.1-3.38,20.42-6.13,30.4-9.84,9.4-3.49,18.35-5.68,27.04,1.37.25.2.61.26.92.39,9.34,3.86,9.46,3.78,9.43-7.13Z"/>
          <path class="cls-4" d="M433.41,299.36c-4.46,14.67-8.13,29.61-15.12,43.39-.66,1.3-.94,2.84-2.34,3.67l.08.07c.01-7.53,2.36-14.72,3.23-22.15.9-7.66.46-15.19-2.6-22.05-8.79-19.71-11.07-40.57-12.69-61.73-1.57-20.56-6.97-40.3-15.26-59.18-3.95-8.99-9.48-16.75-18.16-21.97-6.18-3.71-12.54-4.93-19.6-3.15-14.87,3.75-28.87,10.19-43.72,14.01-3.06.79-6.11,1.63-9.17,2.44-21.19,5.23-42.11,4.82-62.8-2.63-8.45-3.04-17.14-5.42-25.58-8.48-4.29-1.55-6.69-.29-9.02,3.33-6.89,10.72-10.34,22.63-12.54,34.97-2.95,16.56-3.78,33.33-4.07,50.11-.26,15.01-4.82,29.11-8.49,43.41-2.69,10.46-5.66,20.91-5.38,31.83.13,5.1,1,10.17,1.15,15.39-2.96-5.77-4.49-12.06-6.34-18.23-2.47-8.26-3.62-16.89-6.94-24.91-3.88-14.83-6.83-29.8-7.92-45.13-2.53-35.78,6.29-68.59,25.49-98.76,4.02-6.32,7.79-12.79,11.86-19.07,1.3-2.01,1.45-3.84,1.06-6.1-2.2-12.9.66-17.94,12.78-22.81,11.44-4.59,23.55-6.2,35.66-6.66,32.14-1.23,64.28-1.13,95.93,5.76,18.14,3.95,35.44,10.24,51.29,20.2,26.18,16.46,41.24,40.46,49.84,69.75,9.51,32.39,9.99,64.51,1.23,96.94-.69,2.57-1.26,5.17-1.89,7.76Z"/>
          <path class="cls-4" d="M298.03,527.35c21.8.73,40.22-7.04,56.22-21.65,7.82-7.14,15.47-14.58,24.64-20.09-.06,1.13-.11,2.26-.17,3.39-.9,2.49-2.02,4.93-2.65,7.49-4.79,19.44-19.07,31.99-32.76,44.83-12.25,11.49-25,22.44-37.54,33.63-1.11.99-2.19,2.06-3.77,2.29.08-4.89-3.65-4.21-6.32-3.75-9.36,1.6-18.76.39-28.12.91-2.58.14-5.17-1.58-7.71.07-16.55-9.79-31.81-21.15-44.09-36.16-6.59-8.06-8.79-17.35-7.64-27.56,2-7.74,1.89-15.66,2.11-23.56.1-3.47.18-6.94.26-10.41,3.46,1.03,5.76,3.68,8.29,5.98,11.28,10.26,22.07,21.06,34.17,30.4,13.29,10.26,28.49,14.43,45.08,14.2Z"/>
          <path class="cls-3" d="M259.84,574.45c2.54-1.65,5.13.07,7.71-.07,9.36-.51,18.76.7,28.12-.91,2.67-.46,6.4-1.15,6.32,3.75-.99,4.2-2.14,8.36-2.92,12.6-.52,2.81-1.66,3.53-4.46,2.82-2.69-.69-5.37-1.95-8.29-1.36-6.96-4.29-13.94-8.56-20.87-12.9-1.93-1.21-3.74-2.62-5.6-3.93Z"/>
          <path class="cls-4" d="M198.96,313.38c-.23-5.99,1.49-12.29,2.35-18.71.56-4.19,3.01-4.56,6.31-4.06,11.66,1.77,23.33,3.48,34.99,5.3,9.03,1.41,18.02,3.01,27.06,4.35,2.33.35,2.98.99,2.65,3.47-.94,7.08-1.66,14.19-2.15,21.31-.23,3.27-1.48,3.39-4.13,2.55-13.31-4.25-26.69-8.27-39.97-12.6-2.9-.95-5.26-1.02-8.02.45-4.54,2.43-9.27,4.52-14,6.56-4.95,2.13-5,2.03-5.07-3.57-.02-1.5,0-3,0-5.05Z"/>
          <path class="cls-3" d="M337.99,448.47c-12.65,0-25.3,0-37.95,0-14.46,0-28.92.04-43.38-.03-1.72,0-4.63,1.02-4.45-2.24.15-2.74,2.77-1.8,4.39-1.81,11.14-.09,22.28-.01,33.41-.1,2.64-.02,5.27-.48,7.9-.74,12.59,1.74,25.21.4,37.81.22,3.71-.05,5.06,1.05,3.25,4.62-.33.03-.66.06-.99.09Z"/>
          <path class="cls-4" d="M394.96,313.27c.04,10.91-.09,10.99-9.43,7.13-.31-.13-.67-.18-.92-.39-8.69-7.06-17.65-4.87-27.04-1.37-9.97,3.71-20.3,6.45-30.4,9.84-3.12,1.04-4.6.71-4.76-2.88-.35-7.81-.82-15.62-1.37-23.43-.18-2.62.89-3.42,3.4-3.61,20.57-1.58,41.14-3.22,61.7-4.99,3.55-.31,5.45.66,6.41,4.3,1.4,5.34,2.77,10.63,2.4,15.4Z"/>
          <path class="cls-4" d="M415.95,346.41c-.06.31-.12.62-.17.94-.15-.12-.3-.23-.45-.35.23-.17.47-.34.7-.52,0,0-.08-.07-.08-.07Z"/>
          <path class="cls-5" d="M337.99,448.47c.33-.03.66-.06.99-.09-.29.51-.62.54-.99.09Z"/>
        </g>
      </g>
    </g>
  </g>
</svg>